<?xml version="1.0" encoding="UTF-8"?>
<svg width="16px" height="16px" viewBox="0 0 16 16" version="1.1" xmlns="http://www.w3.org/2000/svg"
    xmlns:xlink="http://www.w3.org/1999/xlink">
    <!-- Generator: Sketch 58 (84663) - https://sketch.com -->
    <title>model</title>
    <desc>Created with Sketch.</desc>
    <g id="页面-1" stroke="none" stroke-width="1" fill="none" fill-rule="evenodd">
        <g id="模型属性页面" transform="translate(-260.000000, -326.000000)">
            <g id="内容" transform="translate(220.000000, 256.000000)">
                <g id="机器结构" transform="translate(1.000000, 0.000000)">
                    <g id="组织架构" transform="translate(0.000000, 68.000000)">
                        <g id="公司名称备份" transform="translate(25.000000, 0.000000)">
                            <g id="编组-12" transform="translate(14.000000, 2.000000)">
                                <g id="model">
                                    <rect id="矩形" fill="#000000" fill-rule="nonzero" opacity="0" x="0" y="0" width="16"
                                        height="16"></rect>
                                    <circle id="椭圆形" fill="#3377FF" cx="8" cy="8" r="8"></circle>
                                    <g id="编组-6备份" transform="translate(4.000000, 4.000000)" fill="#FFFFFF"
                                        fill-rule="nonzero">
                                        <path
                                            d="M7.42089739,2.50059592 L4.07244368,0.738886941 L0.859738107,2.42819692 L0.730023236,2.49757929 L4.07244368,4.16577289 L4.11165981,4.14767314 L7.42994726,2.50662916 L7.42994726,2.50361254 L7.42089739,2.50059592 Z M4.17244368,4.14767314 L4.07244368,4.24767314 L4.17244368,4.14767314 Z"
                                            id="形状" fill-opacity="0.5"></path>
                                        <path
                                            d="M8.09058813,2.17781705 C8.03947821,2.07135795 7.95608171,1.98373884 7.85227475,1.92743718 L4.3288568,0.0631629479 C4.16828746,-0.021054316 3.97659991,-0.021054316 3.81603056,0.0631629479 L0.295629244,1.91537068 C0.239992519,1.94959929 0.190949341,1.99353381 0.150831247,2.04508555 C0.11593765,2.08042732 0.0855414292,2.11994241 0.060332492,2.16273392 C0.0224183022,2.23764981 0.00180083613,2.32011969 0,2.40406392 L0,6.02401386 C0.00191861458,6.23031512 0.118101219,6.41853095 0.301662493,6.51270711 L3.82206381,8.36491483 C3.89859445,8.4085785 3.98442037,8.43339564 4.07244368,8.43731383 L4.11467644,8.43731383 C4.18932222,8.43358525 4.26232552,8.41404915 4.3288568,8.37999796 L7.84925813,6.52779023 C8.0328194,6.43361407 8.14900201,6.24539825 8.15092063,6.03909699 L8.15092063,2.40406392 C8.14789783,2.3250981 8.12728577,2.2478029 8.09058813,2.17781705 Z M7.42994726,2.50662916 L4.11165981,4.14767314 L4.07244368,4.16878951 L4.07244368,7.68919083 L0.714940109,5.92446524 L0.714940109,2.50361254 L0.84465498,2.43423017 L4.07244368,0.738886941 L7.42089739,2.50059592 L7.42994726,2.50662916 Z"
                                            id="形状"></path>
                                    </g>
                                </g>
                            </g>
                        </g>
                    </g>
                </g>
            </g>
        </g>
    </g>
</svg>