<?xml version="1.0" standalone="no"?><!DOCTYPE svg PUBLIC "-//W3C//DTD SVG 1.1//EN" "http://www.w3.org/Graphics/SVG/1.1/DTD/svg11.dtd"><svg t="1626870531009" class="icon" viewBox="0 0 1024 1024" version="1.1" xmlns="http://www.w3.org/2000/svg" p-id="19142" width="64" height="64" xmlns:xlink="http://www.w3.org/1999/xlink"><defs><style type="text/css">@font-face { font-family: feedback-iconfont; src: url("//at.alicdn.com/t/font_1031158_1uhr8ri0pk5.eot?#iefix") format("embedded-opentype"), url("//at.alicdn.com/t/font_1031158_1uhr8ri0pk5.woff2") format("woff2"), url("//at.alicdn.com/t/font_1031158_1uhr8ri0pk5.woff") format("woff"), url("//at.alicdn.com/t/font_1031158_1uhr8ri0pk5.ttf") format("truetype"), url("//at.alicdn.com/t/font_1031158_1uhr8ri0pk5.svg#iconfont") format("svg"); }
</style></defs><path d="M468.7872 595.1488v177.5616h-61.44V297.7792h135.168c51.6096 0 90.9312 12.288 119.808 37.4784 27.648 25.1904 41.7792 60.2112 41.7792 106.2912s-16.5888 83.5584-50.3808 113.0496-73.728 43.008-124.1088 40.5504h-60.8256z m0-242.688v189.8496h57.1392c37.4784 0 65.7408-8.6016 85.4016-25.1904 19.6608-16.5888 29.4912-40.5504 29.4912-72.4992 0-61.44-36.2496-92.16-108.7488-92.16h-63.2832z" fill="#36ab60" p-id="19143"></path><path d="M509.3376 60.6208c-254.3616 0-460.8 206.4384-460.8 460.8s206.4384 460.8 460.8 460.8 460.8-206.4384 460.8-460.8-206.4384-460.8-460.8-460.8z m0 866.9184C285.696 927.5392 104.448 746.2912 104.448 522.6496S285.696 117.76 509.3376 117.76 914.2272 299.008 914.2272 522.6496s-181.248 404.8896-404.8896 404.8896z" fill="#36ab60" p-id="19144"></path></svg>