<?xml version="1.0" encoding="UTF-8"?>
<svg width="16px" height="16px" viewBox="0 0 16 16" version="1.1" xmlns="http://www.w3.org/2000/svg"
    xmlns:xlink="http://www.w3.org/1999/xlink">
    <!-- Generator: Sketch 58 (84663) - https://sketch.com -->
    <title>property</title>
    <desc>Created with Sketch.</desc>
    <g id="页面-1" stroke="none" stroke-width="1" fill="none" fill-rule="evenodd">
        <g id="模型属性页面" transform="translate(-297.000000, -434.000000)">
            <g id="内容" transform="translate(220.000000, 256.000000)">
                <g id="机器结构" transform="translate(1.000000, 0.000000)">
                    <g id="组织架构" transform="translate(0.000000, 68.000000)">
                        <g id="编组-2" transform="translate(5.000000, 36.000000)">
                            <g id="编组-11" transform="translate(71.000000, 74.000000)">
                                <g id="property">
                                    <rect id="矩形" fill="#000000" fill-rule="nonzero" opacity="0" x="0" y="0" width="16"
                                        height="16"></rect>
                                    <circle id="椭圆形" fill="#00B259" cx="8" cy="8" r="8"></circle>
                                    <g id="编组-8" transform="translate(3.000000, 4.000000)" fill="#FFFFFF"
                                        fill-rule="nonzero">
                                        <path
                                            d="M2.06975446,4.07783077 L5.67801339,0.469571845 C5.64564732,0.501937916 5.76506696,0.389214702 5.96819196,0.225152202 C5.14118304,-0.175517441 3.69810268,0.102384345 3.80078125,0.000821844793 L0.192522321,3.6079647 C-0.0641741071,3.86466113 -0.0641741071,4.28207184 0.192522321,4.53876827 L2.40457589,6.75082184 C2.66127232,7.00751827 3.07868304,7.00751827 3.33537946,6.75082184 L3.57421875,6.51198256 L2.06975446,5.00863434 C1.81194196,4.75193792 1.81194196,4.3345272 2.06975446,4.07783077 L2.06975446,4.07783077 Z"
                                            id="路径" fill-opacity="0.5"></path>
                                        <path
                                            d="M9.32533482,0.905955773 C8.62667411,0.207295059 6.73493304,0.585643273 6.85100446,0.469571845 L3.24274554,4.07783077 C2.98604911,4.33564327 2.98604911,4.75193792 3.24274554,5.00975042 L5.45479911,7.22068792 C5.71149554,7.47738434 6.12890625,7.47738434 6.38560268,7.22068792 L9.99386161,3.61242899 C9.87779018,3.72850042 10.3331473,1.91488434 9.32533482,0.905955773 Z M8.20033482,2.73966113 C7.82533482,2.73966113 7.52176339,2.4360897 7.52176339,2.0610897 C7.52176339,1.6860897 7.82533482,1.38251827 8.20033482,1.38251827 C8.57533482,1.38251827 8.87890625,1.6860897 8.87890625,2.0610897 C8.87779018,2.4360897 8.57421875,2.73966113 8.20033482,2.73966113 Z"
                                            id="形状"></path>
                                    </g>
                                </g>
                            </g>
                        </g>
                    </g>
                </g>
            </g>
        </g>
    </g>
</svg>