<?xml version="1.0" standalone="no"?><!DOCTYPE svg PUBLIC "-//W3C//DTD SVG 1.1//EN" "http://www.w3.org/Graphics/SVG/1.1/DTD/svg11.dtd"><svg t="1626870488756" class="icon" viewBox="0 0 1024 1024" version="1.1" xmlns="http://www.w3.org/2000/svg" p-id="18305" width="64" height="64" xmlns:xlink="http://www.w3.org/1999/xlink"><defs><style type="text/css">@font-face { font-family: feedback-iconfont; src: url("//at.alicdn.com/t/font_1031158_1uhr8ri0pk5.eot?#iefix") format("embedded-opentype"), url("//at.alicdn.com/t/font_1031158_1uhr8ri0pk5.woff2") format("woff2"), url("//at.alicdn.com/t/font_1031158_1uhr8ri0pk5.woff") format("woff"), url("//at.alicdn.com/t/font_1031158_1uhr8ri0pk5.ttf") format("truetype"), url("//at.alicdn.com/t/font_1031158_1uhr8ri0pk5.svg#iconfont") format("svg"); }
</style></defs><path d="M372.736 668.672c14.131 12.288 33.792 23.962 58.368 30.72 25.19 6.758 47.309 12.288 70.042 12.288 66.97 0 100.761-23.962 100.761-71.27 0-14.132-4.3-25.19-11.059-36.25-6.758-11.06-16.589-19.66-29.491-27.648s-36.25-20.89-70.042-37.478c-47.309-23.962-79.872-46.08-93.389-65.741-15.36-20.89-22.118-43.008-22.118-70.042 0-39.321 15.36-71.27 47.309-93.389s71.27-35.02 119.808-35.02c47.309 0 82.33 5.53 103.219 16.588v66.97c-29.491-19.66-64.512-29.491-108.749-29.491-29.491 0-52.838 5.53-71.27 18.432-18.432 12.288-27.648 29.491-27.648 50.38 0 19.661 6.758 35.021 19.66 47.31s40.551 27.647 82.33 49.151c46.08 22.119 79.872 44.852 97.69 66.97 18.432 22.118 27.648 47.309 27.648 75.571 0 41.78-15.36 73.728-46.08 96.461-30.72 22.118-72.5 33.792-125.952 33.792-18.432 0-40.55-3.072-65.741-8.602s-43.008-11.059-54.682-19.66v-70.042h-0.614z" p-id="18306" fill="#17abe3"></path><path d="M515.277 58.573c-254.362 0-460.8 206.438-460.8 460.8s206.438 460.8 460.8 460.8 460.8-206.439 460.8-460.8-206.439-460.8-460.8-460.8z m0 866.918c-223.642 0-404.89-181.248-404.89-404.89s181.248-404.889 404.89-404.889 404.89 181.248 404.89 404.89-181.249 404.89-404.89 404.89z" p-id="18307" fill="#17abe3"></path></svg>